<mxfile host="app.diagrams.net" modified="2020-12-05T21:29:19.361Z" agent="5.0 (Windows NT 10.0; Win64; x64) AppleWebKit/537.36 (KHTML, like Gecko) Chrome/87.0.4280.88 Safari/537.36" etag="JUAom8aR55BM_hpq2zZw" version="13.10.9" type="github">
  <diagram id="kgpKYQtTHZ0yAKxKKP6v" name="Page-1">
    <mxGraphModel dx="1108" dy="520" grid="0" gridSize="10" guides="1" tooltips="1" connect="1" arrows="1" fold="1" page="1" pageScale="1" pageWidth="850" pageHeight="1100" math="0" shadow="0">
      <root>
        <mxCell id="0" />
        <mxCell id="1" parent="0" />
        <mxCell id="EAmPEw7BiVeHTAejZ5_4-25" value="" style="edgeStyle=orthogonalEdgeStyle;rounded=0;orthogonalLoop=1;jettySize=auto;html=1;entryX=0.5;entryY=1;entryDx=0;entryDy=0;" edge="1" parent="1" source="EAmPEw7BiVeHTAejZ5_4-7" target="EAmPEw7BiVeHTAejZ5_4-3">
          <mxGeometry relative="1" as="geometry">
            <mxPoint x="739" y="413" as="targetPoint" />
            <Array as="points">
              <mxPoint x="653" y="643" />
            </Array>
          </mxGeometry>
        </mxCell>
        <mxCell id="EAmPEw7BiVeHTAejZ5_4-1" value="Actor" style="shape=umlActor;verticalLabelPosition=bottom;verticalAlign=top;html=1;outlineConnect=0;" vertex="1" parent="1">
          <mxGeometry x="455" y="49" width="30" height="60" as="geometry" />
        </mxCell>
        <mxCell id="EAmPEw7BiVeHTAejZ5_4-15" style="edgeStyle=orthogonalEdgeStyle;rounded=0;orthogonalLoop=1;jettySize=auto;html=1;exitX=0.5;exitY=1;exitDx=0;exitDy=0;entryX=0.5;entryY=0;entryDx=0;entryDy=0;" edge="1" parent="1" source="EAmPEw7BiVeHTAejZ5_4-2" target="EAmPEw7BiVeHTAejZ5_4-4">
          <mxGeometry relative="1" as="geometry" />
        </mxCell>
        <mxCell id="EAmPEw7BiVeHTAejZ5_4-2" value="Request" style="rounded=0;whiteSpace=wrap;html=1;fillColor=#dae8fc;strokeColor=#6c8ebf;" vertex="1" parent="1">
          <mxGeometry x="412" y="117" width="120" height="60" as="geometry" />
        </mxCell>
        <mxCell id="EAmPEw7BiVeHTAejZ5_4-3" value="Response" style="rounded=0;whiteSpace=wrap;html=1;fillColor=#dae8fc;strokeColor=#6c8ebf;" vertex="1" parent="1">
          <mxGeometry x="593" y="69" width="120" height="67" as="geometry" />
        </mxCell>
        <mxCell id="EAmPEw7BiVeHTAejZ5_4-16" value="" style="edgeStyle=orthogonalEdgeStyle;rounded=0;orthogonalLoop=1;jettySize=auto;html=1;" edge="1" parent="1" source="EAmPEw7BiVeHTAejZ5_4-4" target="EAmPEw7BiVeHTAejZ5_4-5">
          <mxGeometry relative="1" as="geometry" />
        </mxCell>
        <mxCell id="EAmPEw7BiVeHTAejZ5_4-4" value="Controller Layer" style="rounded=0;whiteSpace=wrap;html=1;" vertex="1" parent="1">
          <mxGeometry x="244.5" y="229" width="455" height="71" as="geometry" />
        </mxCell>
        <mxCell id="EAmPEw7BiVeHTAejZ5_4-17" value="" style="edgeStyle=orthogonalEdgeStyle;rounded=0;orthogonalLoop=1;jettySize=auto;html=1;" edge="1" parent="1" source="EAmPEw7BiVeHTAejZ5_4-5" target="EAmPEw7BiVeHTAejZ5_4-6">
          <mxGeometry relative="1" as="geometry" />
        </mxCell>
        <mxCell id="EAmPEw7BiVeHTAejZ5_4-5" value="Service Layer" style="rounded=0;whiteSpace=wrap;html=1;" vertex="1" parent="1">
          <mxGeometry x="244.5" y="352" width="455" height="71" as="geometry" />
        </mxCell>
        <mxCell id="EAmPEw7BiVeHTAejZ5_4-18" value="" style="edgeStyle=orthogonalEdgeStyle;rounded=0;orthogonalLoop=1;jettySize=auto;html=1;" edge="1" parent="1" source="EAmPEw7BiVeHTAejZ5_4-6" target="EAmPEw7BiVeHTAejZ5_4-7">
          <mxGeometry relative="1" as="geometry" />
        </mxCell>
        <mxCell id="EAmPEw7BiVeHTAejZ5_4-6" value="Data Access Layer" style="rounded=0;whiteSpace=wrap;html=1;" vertex="1" parent="1">
          <mxGeometry x="244.5" y="475" width="455" height="71" as="geometry" />
        </mxCell>
        <mxCell id="EAmPEw7BiVeHTAejZ5_4-7" value="" style="shape=cylinder3;whiteSpace=wrap;html=1;boundedLbl=1;backgroundOutline=1;size=15;" vertex="1" parent="1">
          <mxGeometry x="442" y="603" width="60" height="80" as="geometry" />
        </mxCell>
        <mxCell id="EAmPEw7BiVeHTAejZ5_4-8" value="" style="outlineConnect=0;dashed=0;verticalLabelPosition=bottom;verticalAlign=top;align=center;html=1;shape=mxgraph.aws3.ms_sql_instance_2;fillColor=#2E73B8;gradientColor=none;" vertex="1" parent="1">
          <mxGeometry x="362" y="658" width="60" height="63" as="geometry" />
        </mxCell>
        <mxCell id="EAmPEw7BiVeHTAejZ5_4-9" value="" style="dashed=0;outlineConnect=0;html=1;align=center;labelPosition=center;verticalLabelPosition=bottom;verticalAlign=top;shape=mxgraph.weblogos.mongodb" vertex="1" parent="1">
          <mxGeometry x="439" y="719" width="41.2" height="86.2" as="geometry" />
        </mxCell>
        <mxCell id="EAmPEw7BiVeHTAejZ5_4-19" value="HTML, GET, POST, DELETE, PUT" style="rounded=0;whiteSpace=wrap;html=1;" vertex="1" parent="1">
          <mxGeometry x="251" y="213" width="199" height="37" as="geometry" />
        </mxCell>
        <mxCell id="EAmPEw7BiVeHTAejZ5_4-22" value="BUSINESS LOGIC" style="rounded=0;whiteSpace=wrap;html=1;" vertex="1" parent="1">
          <mxGeometry x="251" y="330" width="177" height="37" as="geometry" />
        </mxCell>
        <mxCell id="EAmPEw7BiVeHTAejZ5_4-23" value="DATABASE" style="rounded=0;whiteSpace=wrap;html=1;" vertex="1" parent="1">
          <mxGeometry x="251" y="457" width="177" height="37" as="geometry" />
        </mxCell>
      </root>
    </mxGraphModel>
  </diagram>
</mxfile>
